<svg xmlns="http://www.w3.org/2000/svg" xmlns:v="https://svgstorm.com" viewBox="0 0 484 199"
    width="484" height="199">


    <g fill="#000000" fill-opacity="1.00" stroke="None">
        <path
            d=" M 64.00 0.00  L 57.00 0.00 C 46.49 12.40 48.09 31.68 42.98 46.98 C 35.37 79.90 28.04 112.87 20.93 145.93 C 21.00 159.88 4.29 182.48 20.00 191.00 C 34.21 187.44 40.77 170.78 51.75 161.75 C 60.94 151.06 69.84 139.82 80.00 130.00 C 84.67 149.74 86.76 170.82 94.77 189.23 C 106.17 197.10 111.73 179.92 106.00 172.00 C 104.16 151.79 93.26 131.27 95.70 111.70 C 104.68 105.92 101.23 88.95 89.00 95.00 C 85.47 78.62 82.06 62.22 77.99 46.01 C 73.06 30.97 74.76 11.96 64.00 0.00 M 38.00 153.00  C 41.89 117.88 53.84 81.75 60.00 46.00 C 66.47 66.32 70.50 88.64 74.66 109.68 C 63.31 124.62 48.95 138.01 38.00 153.00 Z" />
    </g>
    <g fill="#000000" fill-opacity="1.00" stroke="None">
        <path
            d=" M 163.00 154.00  C 154.79 160.41 146.68 166.91 138.70 173.70 C 124.30 177.94 132.47 199.22 144.75 187.75 C 176.34 160.71 211.24 136.14 241.00 108.00 C 241.12 96.61 229.28 90.07 224.25 80.75 C 204.73 56.19 185.67 31.35 166.25 6.75 C 149.53 -4.33 152.78 22.08 153.00 32.00 C 153.00 61.33 153.00 90.67 153.00 120.00 C 154.66 131.43 147.28 151.99 163.00 154.00 M 169.00 34.00  C 187.09 57.89 206.12 81.03 224.00 105.00 C 204.10 119.49 185.71 136.26 166.00 151.00 C 171.28 113.24 165.37 71.84 169.00 34.00 Z" />
    </g>

    <g fill="#000000" fill-opacity="1.00" stroke="None">
        <path
            d=" M 303.00 53.00  C 312.53 58.02 321.87 63.19 330.92 69.08 C 337.52 74.46 358.37 83.70 353.92 67.08 C 328.91 48.76 299.70 35.42 273.08 18.92 C 263.76 15.62 254.90 3.66 244.75 7.75 C 235.25 19.07 254.64 23.48 261.30 28.70 C 270.65 33.55 279.37 39.94 289.00 44.00 C 289.00 80.33 289.00 116.67 289.00 153.00 C 279.22 157.31 270.10 163.48 260.70 168.70 C 253.99 174.42 235.17 177.59 241.75 189.25 C 251.36 196.08 260.77 182.93 269.92 179.92 C 296.85 163.81 324.98 149.46 351.25 132.25 C 358.72 116.27 336.75 121.33 330.23 128.23 C 321.35 133.88 312.23 138.93 303.00 144.00 C 303.00 113.67 303.00 83.33 303.00 53.00 Z" />
    </g>
    <g fill="#000000" fill-opacity="1.00" stroke="None">
        <path
            d=" M 391.00 177.00  C 396.45 161.50 402.22 146.14 407.69 130.69 C 412.74 115.61 423.41 99.52 412.77 84.23 C 405.65 70.31 400.26 55.68 393.32 41.68 C 385.82 29.96 385.27 7.34 370.00 5.00 C 359.30 15.42 374.40 28.62 377.07 39.93 C 382.10 52.05 387.42 64.05 393.07 75.93 C 397.57 88.14 407.72 100.74 398.32 113.32 C 394.24 126.32 388.80 138.75 384.78 151.78 C 382.18 163.87 370.09 177.46 375.92 189.08 C 390.65 195.26 408.82 190.50 425.00 192.00 C 441.50 190.83 459.64 194.41 475.08 190.08 C 484.92 170.85 453.03 178.30 442.00 177.00 C 425.00 177.00 408.00 177.00 391.00 177.00 Z" />
    </g>

</svg>