<svg width="150" height="200" xmlns="http://www.w3.org/2000/svg">
 <g>
  <title>Layer 1</title>
  <g id="svg_20" stroke="null">
   <rect fill="#fff" x="296.85499" y="44.01531" width="6.58276" height="120.02863" id="svg_16" stroke-width="8" rx="5" stroke="#000"/>
   <path fill="#fff" stroke-width="8" opacity="undefined" d="m353.76876,71.49956c1.66276,0.95727 1.98653,3.6158 0.70906,5.82216l1.41059,-2.43628c-1.27748,2.20637 -3.74827,3.25603 -5.41103,2.29876l-99.14543,-57.0791c-1.66276,-0.95727 -1.98654,-3.61579 -0.70906,-5.82216l-1.41059,2.43628c1.27747,-2.20637 3.74827,-3.25603 5.41103,-2.29876l99.14543,57.0791z" id="svg_18" stroke="#000"/>
   <path fill="#fff" stroke-width="8" opacity="undefined" d="m252.74255,191.5865c-1.66276,0.95727 -4.13356,-0.0924 -5.41103,-2.29876l1.41059,2.43628c-1.27748,-2.20637 -0.9537,-4.86489 0.70906,-5.82216l99.14543,-57.0791c1.66276,-0.95727 4.13355,0.09239 5.41103,2.29876l-1.41059,-2.43628c1.27747,2.20637 0.9537,4.86489 -0.70906,5.82216l-99.14543,57.0791z" id="svg_19" stroke="#000"/>
  </g>
  <g id="svg_23" stroke="null">
   <path fill="#fff" stroke-width="8" opacity="undefined" d="m475.21196,184.91513c1.47788,0 2.7198,2.25853 2.7198,4.94618l0,-2.96771c0,2.68765 -1.24192,4.94618 -2.7198,4.94618l-88.12141,0c-1.47788,0 -2.7198,-2.25852 -2.7198,-4.94618l0,2.96771c0,-2.68764 1.24192,-4.94618 2.7198,-4.94618l88.12141,0z" id="svg_17" stroke="#000"/>
   <path fill="#fff" stroke-width="8" opacity="undefined" d="m411.77071,103.02462c0.50991,-1.41209 3.044,-1.82626 5.54964,-0.90703l-2.76675,-1.01502c2.50566,0.91923 4.18275,2.87833 3.67284,4.29042l-30.40426,84.19883c-0.50991,1.4121 -3.04399,1.82627 -5.54965,0.90704l2.76675,1.01502c-2.50565,-0.91923 -4.18275,-2.87833 -3.67284,-4.29043l30.40426,-84.19883l0.00001,0z" id="svg_21" stroke="#000"/>
   <path fill="#fff" stroke-width="8" opacity="undefined" d="m417.88887,101.19179c0.64131,1.45185 -0.86678,3.59052 -3.30271,4.68368l2.68976,-1.20708c-2.43594,1.09317 -5.02185,0.79175 -5.66316,-0.6601l-38.23931,-86.5694c-0.64131,-1.45185 0.86677,-3.59052 3.30271,-4.68369l-2.68976,1.20708c2.43593,-1.09316 5.02185,-0.79175 5.66316,0.66011l38.23931,86.5694z" id="svg_22" stroke="#000"/>
  </g>
  <g stroke="null" id="svg_24">
   <rect stroke="#000" fill="#fff" x="45.0536" y="10.15238" width="7" height="142.29289" id="svg_10" stroke-width="8" rx="5"/>
   <rect stroke="#000" transform="matrix(-0.788011 0.625745 -0.615661 -0.800917 190.582 56.6488)" fill="#fff" x="81.65932" y="-1.61519" width="7" height="127.69815" id="svg_11" stroke-width="8" rx="5"/>
   <rect stroke="#000" transform="matrix(0.62932 0.789874 -0.777146 0.639627 143.089 -5.15786)" fill="#fff" x="70.10455" y="83.53564" width="7" height="130.95484" id="svg_13" stroke-width="8" rx="5"/>
  </g>
 </g>

</svg>