<svg width="150" height="200" xmlns="http://www.w3.org/2000/svg">
 <g>
  <title>Layer 1</title>
  <g stroke="null" id="svg_20">
   <rect stroke="#000" fill="#fff" x="71.76739" y="39.85719" width="6.70404" height="123.40257" id="svg_16" stroke-width="8" rx="5"/>
   <path stroke="#000" fill="#fff" stroke-width="8" opacity="undefined" d="m129.72971,68.11401c1.69339,0.98418 2.02313,3.71744 0.72212,5.98582l1.43658,-2.50476c-1.30102,2.26839 -3.81733,3.34756 -5.51072,2.36338l-100.97204,-58.68356c-1.69339,-0.98418 -2.02314,-3.71743 -0.72212,-5.98582l-1.43658,2.50476c1.30101,-2.26839 3.81733,-3.34756 5.51072,-2.36338l100.97204,58.68356z" id="svg_18"/>
   <path stroke="#000" fill="#fff" stroke-width="8" opacity="undefined" d="m26.84224,191.57652c-1.69339,0.98418 -4.20971,-0.095 -5.51072,-2.36338l1.43658,2.50476c-1.30102,-2.26839 -0.97127,-5.00164 0.72212,-5.98582l100.97204,-58.68356c1.69339,-0.98418 4.2097,0.09499 5.51072,2.36338l-1.43658,-2.50476c1.30101,2.26839 0.97127,5.00164 -0.72212,5.98582l-100.97204,58.68356z" id="svg_19"/>
  </g>
  <g id="svg_23" stroke="null">
   <path fill="#fff" stroke-width="8" opacity="undefined" d="m475.21196,184.91513c1.47788,0 2.7198,2.25853 2.7198,4.94618l0,-2.96771c0,2.68765 -1.24192,4.94618 -2.7198,4.94618l-88.12141,0c-1.47788,0 -2.7198,-2.25852 -2.7198,-4.94618l0,2.96771c0,-2.68764 1.24192,-4.94618 2.7198,-4.94618l88.12141,0z" id="svg_17" stroke="#000"/>
   <path fill="#fff" stroke-width="8" opacity="undefined" d="m411.77071,103.02462c0.50991,-1.41209 3.044,-1.82626 5.54964,-0.90703l-2.76675,-1.01502c2.50566,0.91923 4.18275,2.87833 3.67284,4.29042l-30.40426,84.19883c-0.50991,1.4121 -3.04399,1.82627 -5.54965,0.90704l2.76675,1.01502c-2.50565,-0.91923 -4.18275,-2.87833 -3.67284,-4.29043l30.40426,-84.19883l0.00001,0z" id="svg_21" stroke="#000"/>
   <path fill="#fff" stroke-width="8" opacity="undefined" d="m417.88887,101.19179c0.64131,1.45185 -0.86678,3.59052 -3.30271,4.68368l2.68976,-1.20708c-2.43594,1.09317 -5.02185,0.79175 -5.66316,-0.6601l-38.23931,-86.5694c-0.64131,-1.45185 0.86677,-3.59052 3.30271,-4.68369l-2.68976,1.20708c2.43593,-1.09316 5.02185,-0.79175 5.66316,0.66011l38.23931,86.5694z" id="svg_22" stroke="#000"/>
  </g>
 </g>

</svg>