<svg width="150" height="200" xmlns="http://www.w3.org/2000/svg">
 <g>
  <title>Layer 1</title>
  <g stroke="null" id="svg_23">
   <path stroke="#000" fill="#fff" stroke-width="8" opacity="undefined" d="m123.21196,184.76046c1.47788,0 2.7198,2.30898 2.7198,5.05666l0,-3.034c0,2.74768 -1.24192,5.05666 -2.7198,5.05666l-88.12141,0c-1.47788,0 -2.7198,-2.30897 -2.7198,-5.05666l0,3.034c0,-2.74767 1.24192,-5.05666 2.7198,-5.05666l88.12141,0z" id="svg_17"/>
   <path stroke="#000" fill="#fff" stroke-width="8" opacity="undefined" d="m59.77071,101.04087c0.50991,-1.44363 3.044,-1.86705 5.54964,-0.92729l-2.76675,-1.03769c2.50566,0.93976 4.18275,2.94262 3.67284,4.38625l-30.40426,86.07948c-0.50991,1.44364 -3.04399,1.86706 -5.54965,0.9273l2.76675,1.03769c-2.50565,-0.93976 -4.18275,-2.94262 -3.67284,-4.38626l30.40426,-86.07948l0.00001,0z" id="svg_21"/>
   <path stroke="#000" fill="#fff" stroke-width="8" opacity="undefined" d="m65.88887,99.1671c0.64131,1.48428 -0.86678,3.67072 -3.30271,4.78829l2.68976,-1.23404c-2.43594,1.11759 -5.02185,0.80943 -5.66316,-0.67484l-38.23931,-88.50299c-0.64131,-1.48428 0.86677,-3.67072 3.30271,-4.7883l-2.68976,1.23404c2.43593,-1.11758 5.02185,-0.80943 5.66316,0.67485l38.23931,88.50299z" id="svg_22"/>
  </g>
 </g>

</svg>