<svg width="500" height="200" xmlns="http://www.w3.org/2000/svg">

 <g>
  <title>Layer 1</title>
  <g stroke="null" stroke-width="0.5" id="svg_14">
   <rect stroke="#000" transform="matrix(1.11679 0.22629 -0.237381 1.06461 41.6241 -53.4938)" rx="5" stroke-width="8" id="svg_7" height="172" width="7" y="51.04799" x="28.27136" fill="#fff"/>
   <rect stroke="#000" transform="matrix(1.11679 -0.22629 0.237381 1.06461 -87.1125 7.60439)" rx="5" stroke-width="8" id="svg_8" height="172" width="7" y="27.9327" x="125.97947" fill="#fff"/>
   <rect stroke="#000" transform="matrix(0.874623 0.699605 -0.733895 0.833758 240.631 -46.2636)" rx="5" stroke-width="8" id="svg_9" height="102.30986" width="7" y="184.08745" x="-9.96713" fill="#fff"/>
  </g>
  <g stroke="null" id="svg_20">
   <rect stroke="#000" rx="5" stroke-width="8" id="svg_16" height="120.02863" width="6.58276" y="44.01531" x="296.85499" fill="#fff"/>
   <path stroke="#000" id="svg_18" d="m353.76876,71.49956c1.66276,0.95727 1.98653,3.6158 0.70906,5.82216l1.41059,-2.43628c-1.27748,2.20637 -3.74827,3.25603 -5.41103,2.29876l-99.14543,-57.0791c-1.66276,-0.95727 -1.98654,-3.61579 -0.70906,-5.82216l-1.41059,2.43628c1.27747,-2.20637 3.74827,-3.25603 5.41103,-2.29876l99.14543,57.0791z" opacity="undefined" stroke-width="8" fill="#fff"/>
   <path stroke="#000" id="svg_19" d="m252.74255,191.5865c-1.66276,0.95727 -4.13356,-0.0924 -5.41103,-2.29876l1.41059,2.43628c-1.27748,-2.20637 -0.9537,-4.86489 0.70906,-5.82216l99.14543,-57.0791c1.66276,-0.95727 4.13355,0.09239 5.41103,2.29876l-1.41059,-2.43628c1.27747,2.20637 0.9537,4.86489 -0.70906,5.82216l-99.14543,57.0791z" opacity="undefined" stroke-width="8" fill="#fff"/>
  </g>
  <g stroke="null" id="svg_23">
   <path stroke="#000" id="svg_17" d="m475.21196,184.91513c1.47788,0 2.7198,2.25853 2.7198,4.94618l0,-2.96771c0,2.68765 -1.24192,4.94618 -2.7198,4.94618l-88.12141,0c-1.47788,0 -2.7198,-2.25852 -2.7198,-4.94618l0,2.96771c0,-2.68764 1.24192,-4.94618 2.7198,-4.94618l88.12141,0z" opacity="undefined" stroke-width="8" fill="#fff"/>
   <path stroke="#000" id="svg_21" d="m411.77071,103.02462c0.50991,-1.41209 3.044,-1.82626 5.54964,-0.90703l-2.76675,-1.01502c2.50566,0.91923 4.18275,2.87833 3.67284,4.29042l-30.40426,84.19883c-0.50991,1.4121 -3.04399,1.82627 -5.54965,0.90704l2.76675,1.01502c-2.50565,-0.91923 -4.18275,-2.87833 -3.67284,-4.29043l30.40426,-84.19883z" opacity="undefined" stroke-width="8" fill="#fff"/>
   <path stroke="#000" id="svg_22" d="m417.88887,101.19179c0.64131,1.45185 -0.86678,3.59052 -3.30271,4.68368l2.68976,-1.20708c-2.43594,1.09317 -5.02185,0.79175 -5.66316,-0.6601l-38.23931,-86.5694c-0.64131,-1.45185 0.86677,-3.59052 3.30271,-4.68369l-2.68976,1.20708c2.43593,-1.09316 5.02185,-0.79175 5.66316,0.66011l38.23931,86.5694z" opacity="undefined" stroke-width="8" fill="#fff"/>
  </g>
  <g id="svg_24">
   <rect stroke="#000" rx="5" stroke-width="8" id="svg_10" height="140" width="7" y="13.09778" x="161.0536" fill="#fff"/>
   <rect transform="rotate(142 201.16 62.2338)" stroke="#000" rx="5" stroke-width="8" id="svg_11" height="127.69815" width="7" y="-1.61519" x="197.65932" fill="#fff"/>
   <rect transform="rotate(51 189.605 149.013)" stroke="#000" rx="5" stroke-width="8" id="svg_13" height="130.95484" width="7" y="83.53564" x="186.10455" fill="#fff"/>
  </g>
 </g>
</svg>